{"title":"Fase.72011.DVDRip.Xvid-retibuyendo","uid":6729821,"size":733812928,"categoryP":"video","categoryS":"hd___movies","magnet":"?xt=urn:btih:b5fed241d31238ea82ec4decf63819d31ccb7be7&amp;dn=Fase.72011.DVDRip.Xvid-retibuyendo&amp;tr=udp%3A%2F%2Ftracker.openbittorrent.com%3A80&amp;tr=udp%3A%2F%2Fopen.demonii.com%3A1337&amp;tr=udp%3A%2F%2Ftracker.coppersurfer.tk%3A6969&amp;tr=udp%3A%2F%2Fexodus.desync.com%3A6969","seeders":0,"leechers":1,"uploader":"FatFreddy255","files":1,"time":1318089830,"description":"Inside a quarantined apartment building a man must protect his pregnant wife from his new neighbors.\nDirector: Nicolas Goldbart. \nStars: Daniel Hendler, JazmÃƒÂ­n Stuart, Yayo Guridi and Federico Luppi.\n\n\nComplete name                            : Fase.72011.DVDRip.Xvid-retibuyendo\nFormat                                   : AVI\nFormat/Info                              : Audio Video Interleave\nFile size                                : 700 MiB\nDuration                                 : 1h 36mn\nOverall bit rate                         : 1 012 Kbps\nDirector                                 : by retibuyendo\nWriting application                      : VirtualDubMod 1.5.10.2 (build 2540/release)\nWriting library                          : VirtualDub build 33848/release\n\nVideo\nID                                       : 0\nFormat                                   : MPEG-4 Visual\nFormat profile                           : Advanced Simple@L5\nFormat settings, BVOP                    : No\nFormat settings, QPel                    : No\nFormat settings, GMC                     : No warppoints\nFormat settings, Matrix                  : Default (H.263)\nCodec ID                                 : XVID\nCodec ID/Hint                            : XviD\nDuration                                 : 1h 36mn\nBit rate                                 : 874 Kbps\nWidth                                    : 640 pixels\nHeight                                   : 272 pixels\nDisplay aspect ratio                     : 2.35:1\nFrame rate                               : 29.970 fps\nColor space                              : YUV\nChroma subsampling                       : 4:2:0\nBit depth                                : 8 bits\nScan type                                : Progressive\nCompression mode                         : Lossy\nBits/(Pixel*Frame)                       : 0.168\nStream size                              : 604 MiB (86%)\nWriting library                          : XviD 64\n\nAudio\nID                                       : 1\nFormat                                   : MPEG Audio\nFormat version                           : Version 1\nFormat profile                           : Layer 3\nMode                                     : Joint stereo\nMode extension                           : MS Stereo\nCodec ID                                 : 55\nCodec ID/Hint                            : MP3\nDuration                                 : 1h 36mn\nBit rate mode                            : Variable\nBit rate                                 : 124 Kbps\nChannel(s)                               : 2 channels\nSampling rate                            : 48.0 KHz\nCompression mode                         : Lossy\nStream size                              : 85.8 MiB (12%)\nAlignment                                : Aligned on interleaves\nInterleave, duration                     : 24 ms (0.72 video frame)\nInterleave, preload duration             : 489 ms\n\n\n","torrent":{"xt":"urn:btih:b5fed241d31238ea82ec4decf63819d31ccb7be7","amp;dn":"Fase.72011.DVDRip.Xvid-retibuyendo","amp;tr":["udp%3A%2F%2Ftracker.openbittorrent.com%3A80","udp%3A%2F%2Fopen.demonii.com%3A1337","udp%3A%2F%2Ftracker.coppersurfer.tk%3A6969","udp%3A%2F%2Fexodus.desync.com%3A6969"],"infoHash":"b5fed241d31238ea82ec4decf63819d31ccb7be7","infoHashBuffer":{"type":"Buffer","data":[181,254,210,65,211,18,56,234,130,236,77,236,246,56,25,211,28,203,123,231]},"announce":[],"urlList":[]}}